<?xml version="1.0" standalone="no"?>
<!DOCTYPE svg PUBLIC "-//W3C//DTD SVG 1.1//EN" "http://www.w3.org/Graphics/SVG/1.1/DTD/svg11.dtd" >
<svg xmlns="http://www.w3.org/2000/svg" xmlns:xlink="http://www.w3.org/1999/xlink" version="1.1">
<metadata></metadata>
<defs>
<font id="mrrobotregular" horiz-adv-x="1380" >
<font-face units-per-em="2048" ascent="1740" descent="-308" />
<missing-glyph horiz-adv-x="398" />
<glyph unicode="&#xd;" horiz-adv-x="0" />
<glyph horiz-adv-x="0" />
<glyph horiz-adv-x="0" />
<glyph unicode=" "  horiz-adv-x="398" />
<glyph unicode="&#x09;" horiz-adv-x="398" />
<glyph unicode="&#xa0;" horiz-adv-x="398" />
<glyph unicode="!" horiz-adv-x="780" d="M0 1740h300v-1140h-240q-14 286 -60 1140zM60 0v60v180h540v-240h-540zM60 300v60v180h540v-240h-540zM360 600v1140h300q-16 -284 -60 -1140h-240z" />
<glyph unicode="&#x22;" horiz-adv-x="1024" d="M0 1320v126v54h420v-180q0 -120 -120 -120h-60v120h-240zM0 1560v126v54h420v-180h-420zM480 1320v180h420v-180q0 -120 -120 -120h-60v120h-240zM480 1560v180h420v-180h-420z" />
<glyph unicode="#" horiz-adv-x="1440" d="M0 -24v126v54l360 144v-480q-46 -18 -180 -72v300q-46 -18 -180 -72zM0 216v126v54q44 18 180 72v180q-46 -18 -180 -72v180l360 144v-540zM0 816v126v54q44 18 180 72v300q44 18 180 72v-480zM420 -156v480l480 192v-480q-46 -18 -180 -72v300l-120 -48v-300 q-46 -18 -180 -72zM420 384v540l480 192v-540zM420 984v480q44 18 180 72v-300l120 48v300q44 18 180 72v-480zM600 636l120 48v180l-120 -48v-180zM960 60v480l360 144v-180q-46 -18 -180 -72v-300q-46 -18 -180 -72zM960 600v540l360 144v-180q-46 -18 -180 -72v-180 q44 18 180 72v-180zM960 1200v480q44 18 180 72v-300q44 18 180 72v-180z" />
<glyph unicode="$" horiz-adv-x="1320" d="M0 1050q0 184 116 300q114 116 244 142v248h180v-420h-90q-112 0 -192 -80q-78 -80 -78 -190q0 -112 78 -190q80 -80 192 -80h300q88 0 150 -60q60 -62 60 -150q0 -86 -60 -148q-62 -62 -150 -62h-210h-480v180h690q14 0 22 10q8 8 8 20q0 14 -8 22t-22 8h-300 q-186 0 -318 132t-132 318zM60 120v46v134h480v-300h-180v120h-300zM240 1050q0 86 60 148q62 62 150 62h150h540v-180h-690q-14 0 -22 -8q-8 -10 -8 -22q0 -14 8 -22t22 -8h300q186 0 318 -132t132 -318q0 -184 -128 -312q-126 -128 -292 -138v-120h-180v300h150t192 80 q78 80 78 190q0 112 -78 190q-80 80 -192 80h-300q-88 0 -150 60q-60 62 -60 150zM600 1320v420h180v-240h360v-180h-540z" />
<glyph unicode="%" horiz-adv-x="1860" d="M0 0q172 228 690 910q-106 -70 -240 -70q-186 0 -318 132t-132 318q0 184 132 318q132 132 318 132q184 0 316 -132q134 -134 134 -318q0 -66 -18 -126l438 576h180q-330 -434 -1320 -1740h-180zM180 1290q0 -112 78 -190q80 -80 192 -80q110 0 190 80q80 78 80 190 q0 110 -80 190t-190 80q-112 0 -192 -80q-78 -80 -78 -190zM240 0q330 436 1320 1740h180q-172 -226 -690 -908q106 68 240 68q184 0 318 -134q132 -132 132 -316q0 -186 -132 -318q-134 -132 -318 -132q-186 0 -318 132t-132 318q0 66 18 126l-438 -576h-180zM240 1290 q0 86 60 148q62 62 150 62q86 0 148 -62t62 -148q0 -88 -62 -150q-62 -60 -148 -60q-88 0 -150 60q-60 62 -60 150zM420 1290q0 -14 8 -22t22 -8q12 0 22 8q8 8 8 22q0 12 -8 22q-10 8 -22 8q-14 0 -22 -8q-8 -10 -8 -22zM1020 450q0 -112 80 -192q78 -78 190 -78 q110 0 190 78q80 80 80 192q0 110 -80 190t-190 80q-112 0 -190 -80q-80 -80 -80 -190zM1080 450q0 86 60 148q62 62 150 62q86 0 148 -62t62 -148q0 -88 -62 -150q-62 -60 -148 -60q-88 0 -150 60q-60 62 -60 150zM1260 450q0 -14 8 -22t22 -8q12 0 22 8q8 8 8 22 q0 12 -8 22q-10 8 -22 8q-14 0 -22 -8q-8 -10 -8 -22z" />
<glyph unicode="&#x26;" horiz-adv-x="1620" d="M0 570q0 236 88 342q90 104 160 122l-192 522q-56 184 184 184h1020l-120 -240h-660q-120 0 -68 -120q62 -160 188 -480h-60q-106 0 -204 -98q-96 -96 -96 -232q0 -134 96 -232q98 -98 204 -98h600v540q0 60 60 60h300v-240h-120v-600h-840q-206 0 -372 168 q-168 168 -168 402zM300 570q0 112 80 190q78 80 160 80h180q-54 134 -216 540q-24 60 36 60h576l-120 -240h-132q8 -16 32 -60h604v-240h-360q-60 0 -60 -60v-540h-540q-82 0 -160 80q-80 80 -80 190zM540 570q0 -30 60 -30h240v60h-240q-60 0 -60 -30z" />
<glyph unicode="'" horiz-adv-x="540" d="M-2 1318v124v56h420v-180q0 -120 -120 -120h-60v120h-240zM-2 1328v284v128h422v-412h-422z" />
<glyph unicode="(" horiz-adv-x="900" d="M0 900q0 480 360 840h180q-360 -360 -360 -840t360 -900h-180q-360 420 -360 900zM240 900q0 480 360 840h180q-360 -360 -360 -840t360 -900h-180q-360 416 -360 900z" />
<glyph unicode=")" horiz-adv-x="900" d="M0 0q360 420 360 900t-360 840h180q360 -360 360 -840q0 -484 -360 -900h-180zM240 0q360 420 360 900t-360 840h180q360 -360 360 -840t-360 -900h-180z" />
<glyph unicode="*" horiz-adv-x="1352" d="M0 350q20 64 82 256q110 58 442 232q-130 -122 -524 -488zM0 1374q132 -122 524 -488q-110 58 -442 232q-20 64 -82 256zM42 308q126 128 508 512q-62 -106 -252 -426q-64 -22 -256 -86zM42 1416q64 -22 256 -86q62 -106 252 -426q-126 128 -508 512zM468 344l128 480 l-8 -720zM468 1380l120 240l8 -720zM640 824l128 -480l-120 -240zM640 900l8 720l120 -240zM682 820q126 -128 508 -512q-64 22 -256 86q-62 106 -252 426zM682 904q62 106 252 426q64 22 256 86q-126 -128 -508 -512zM708 838q110 -58 442 -232q20 -64 82 -256 q-132 122 -524 488zM708 886q130 122 524 488q-20 -64 -82 -256q-110 -58 -442 -232z" />
<glyph unicode="+" horiz-adv-x="1140" d="M0 660v126v54h480v-480h-180v300h-300zM0 900v126v54h300v300h180v-480h-480zM540 360v480h480v-180h-300v-300h-180zM540 900v480h180v-300h300v-180h-480z" />
<glyph unicode="," horiz-adv-x="540" d="M0 0v126v54h420v-180q0 -120 -120 -120h-60v120h-240zM0 10v278v134h420v-412h-420zM0 240v126v54h420v-180h-420z" />
<glyph unicode="-" horiz-adv-x="1140" d="M0 698v244v110h1022v-354h-1022z" />
<glyph unicode="." horiz-adv-x="540" d="M0 2v278v132h422v-410h-422z" />
<glyph unicode="/" horiz-adv-x="900" d="M0 0q90 436 360 1740h180q-90 -434 -360 -1740h-180zM240 0q90 436 360 1740h180q-90 -434 -360 -1740h-180z" />
<glyph unicode="0" d="M0 540v280v380q0 540 540 540h180q540 0 540 -540v-660q0 -540 -540 -540h-180q-540 0 -540 540zM240 540q0 -300 300 -300h180q300 0 300 300v660q0 300 -300 300h-180q-300 0 -300 -300v-660zM300 540v166v494q0 240 240 240h180q240 0 240 -240v-660q0 -240 -240 -240 h-180q-240 0 -240 240zM540 600q0 -60 60 -60h60q60 0 60 60v540q0 60 -60 60h-60q-60 0 -60 -60v-540z" />
<glyph unicode="1" horiz-adv-x="960" d="M0 1200v168v72h300q240 0 240 -240v-1200h-240v1140q0 60 -60 60h-240zM0 1500v168v72h300q540 0 540 -540v-1200h-240v1200q0 300 -300 300h-300z" />
<glyph unicode="2" d="M0 0v186v354q0 600 540 600h120q60 0 60 30t-60 30h-660v240h720q82 0 160 -80q80 -80 80 -190q0 -112 -80 -192q-78 -78 -160 -78h-180q-300 0 -300 -360v-300h1020v-240h-1260zM0 1500v168v72h720q206 0 374 -168q166 -168 166 -402q0 -236 -166 -402 q-168 -168 -374 -168h-120q-60 0 -60 -60h720v-240h-960v240q0 300 240 300h180q106 0 204 96q96 98 96 234q0 134 -96 232q-98 98 -204 98h-720z" />
<glyph unicode="3" d="M0 0v168v72h480h300q240 0 240 240v180t-108 210q108 90 108 210v180q0 240 -240 240h-780v240h780q480 0 480 -480v-180t-86 -210q86 -90 86 -210v-180q0 -480 -480 -480h-780zM0 300v168v72h660q60 0 60 30t-60 30h-360v240h480q180 0 180 -180v-180q0 -180 -180 -180 h-780zM0 1200v168v72h780q180 0 180 -180v-180q0 -180 -180 -180h-480v240h360q60 0 60 30t-60 30h-660z" />
<glyph unicode="4" horiz-adv-x="1500" d="M0 840v652v248h240v-900q0 -300 300 -300h360v-540h-240v300h-140q-520 0 -520 540zM300 840v900h240v-840q0 -60 120 -60v900h240v-1140h-360q-240 0 -240 240zM960 0v540h420v-240h-180v-300h-240zM960 600v1140h240v-900h180v-240h-420z" />
<glyph unicode="5" d="M0 0v168v72h720q106 0 204 98q96 98 96 232q0 136 -96 232q-98 98 -204 98h-420v540h960v-240h-720v-60h180q206 0 374 -168q166 -166 166 -402q0 -234 -166 -402q-168 -168 -374 -168h-720zM0 300v240h660q60 0 60 30t-60 30h-660v798v342h1260v-240h-1020v-660h480 q82 0 160 -80q80 -78 80 -190q0 -110 -80 -190q-78 -80 -160 -80h-720z" />
<glyph unicode="6" d="M0 480v330v450q0 480 480 480h780v-240h-780q-240 0 -240 -240v-780q0 -240 240 -240h300q240 0 240 240v180q0 240 -240 240h-240v-60h240t180 -180v-180q0 -180 -180 -180h-300q-180 0 -180 180v780q0 180 180 180h780v-240h-660q-60 0 -60 -60h240q480 0 480 -480 v-180q0 -480 -480 -480h-300q-480 0 -480 480zM540 600q0 -60 60 -60h60q60 0 60 30t-60 30h-120z" />
<glyph unicode="7" d="M0 0l480 1200h-480v168v72h796q-138 -360 -556 -1440h-240zM0 1500v168v72h1260q-180 -434 -720 -1740h-240q150 376 596 1500h-896z" />
<glyph unicode="8" d="M0 480v180t94 210q-94 90 -94 210v76v104q0 480 480 480h300q480 0 480 -480v-180t-86 -210q86 -90 86 -210v-180q0 -480 -480 -480h-300q-480 0 -480 480zM240 480q0 -240 240 -240h300q240 0 240 240v180t-108 210q108 90 108 210v180q0 240 -240 240h-300 q-240 0 -240 -240v-180t104 -210q-104 -90 -104 -210v-180zM300 480v46v134q0 180 180 180h300q180 0 180 -180v-180q0 -180 -180 -180h-300q-180 0 -180 180zM300 1080v46v134q0 180 180 180h300q180 0 180 -180v-180q0 -180 -180 -180h-300q-180 0 -180 180zM540 570 q0 -30 60 -30h60q60 0 60 30t-60 30h-60q-60 0 -60 -30zM540 1170q0 -30 60 -30h60q60 0 60 30t-60 30h-60q-60 0 -60 -30z" />
<glyph unicode="9" d="M0 0v240h780q240 0 240 240v780q0 240 -240 240h-300q-240 0 -240 -240v-180q0 -240 240 -240h240v60h-240t-180 180v180q0 180 180 180h300q180 0 180 -180v-780q0 -180 -180 -180h-780v240h660q60 0 60 60h-240q-480 0 -480 480v76v104q0 480 480 480h300 q480 0 480 -480v-780q0 -480 -480 -480h-780zM540 1170q0 -30 60 -30h120q0 60 -60 60h-60q-60 0 -60 -30z" />
<glyph unicode=":" horiz-adv-x="540" d="M-2 782v284v128h422v-412h-422zM0 118v286v126h422v-412h-422z" />
<glyph unicode=";" horiz-adv-x="540" d="M0 120v126v54h420v-180q0 -120 -120 -120h-60v120h-240zM0 126v278v134h420v-412h-420zM0 786v280v132h420v-412h-420z" />
<glyph unicode="&#x3c;" horiz-adv-x="960" d="M0 900q104 210 420 840h180q-106 -210 -420 -840q104 -226 420 -900h-180q-106 224 -420 900zM240 900q104 210 420 840h180q-106 -210 -420 -840q104 -226 420 -900h-180q-106 224 -420 900z" />
<glyph unicode="=" horiz-adv-x="1140" d="M0 360v126v54h1020v-180h-1020zM0 600v126v54h1020v-180h-1020zM0 960v126v54h1020v-180h-1020zM0 1200v126v54h1020v-180h-1020z" />
<glyph unicode="&#x3e;" horiz-adv-x="960" d="M0 0q104 224 420 900q-106 210 -420 840h180q104 -210 420 -840q-106 -226 -420 -900h-180zM240 0q104 224 420 900q-106 210 -420 840h180q104 -210 420 -840q-106 -226 -420 -900h-180z" />
<glyph unicode="?" horiz-adv-x="1500" d="M0 1080v42v78q0 206 168 374q166 166 372 166h300q206 0 372 -166q168 -168 168 -374q0 -264 -168 -432q-166 -168 -372 -168h-120v240h120q106 0 202 98q98 98 98 262q0 106 -98 204q-96 96 -202 96h-300q-106 0 -204 -96q-96 -98 -96 -204v-120h-240zM300 1080v120 q0 82 80 160q78 80 160 80h300q82 0 160 -80q80 -78 80 -160q0 -140 -80 -220q-78 -80 -160 -80h-180v-300h-240v240q0 166 74 240h-194zM420 0v240h540v-240h-540zM420 300v240h540v-240h-540zM540 1114q50 26 120 26h92q68 0 88 60q-20 60 -88 60h-120q-72 0 -92 -60v-86z " />
<glyph unicode="@" horiz-adv-x="1680" d="M0 780q0 320 228 550q230 230 552 230h420q300 0 300 -300v-600q0 -180 -180 -180h-540q-124 0 -212 88t-88 212q0 122 88 212q88 88 212 88v-420h480q60 0 60 60v480q0 180 -180 180h-360q-248 0 -424 -178q-176 -176 -176 -422q0 -248 176 -424t424 -176h720v-180h-720 q-322 0 -552 228q-228 230 -228 552zM240 780q0 222 158 380q158 160 382 160h300q180 0 180 -180v-360q0 -60 -60 -60h-360v360h180v-180h60v240h-300q-150 0 -256 -106q-104 -106 -104 -254q0 -150 104 -256q106 -104 256 -104h720v-180h-720q-224 0 -382 158t-158 382z " />
<glyph unicode="A" horiz-adv-x="1778" d="M-4 -2q184 512 550 1536q48 98 122 152t170 54q106 0 178 -54t120 -152q186 -512 556 -1536h-234q-180 488 -538 1460q-14 20 -36 32q-20 12 -46 12q-24 0 -44 -12q-18 -12 -32 -32q-176 -486 -530 -1460h-236zM292 -6q172 468 514 1400q2 6 2 12q2 4 4 10q6 14 14 22 q8 10 18 10q8 0 16 -6q8 -4 12 -16v-2l2 -2q0 -4 2 -6v2v2l90 -246q68 -186 202 -556q78 -208 232 -624h-204h-34q-36 98 -108 290q-4 12 -14 38q-28 72 -86 214q-12 32 -34 92q-26 66 -80 196q0 -2 -2 -10q-32 -80 -94 -242q-2 -10 -10 -28q-28 -76 -86 -224 q-40 -108 -120 -326h-236z" />
<glyph unicode="B" horiz-adv-x="1304" d="M0 2v172v66h640q52 0 102 26q52 24 100 72q48 50 72 108t24 126q0 92 -42 166q-44 74 -130 132q90 58 132 134q40 68 40 152v16q0 68 -24 126t-72 108q-48 48 -100 72q-50 24 -102 24h-640v240h640q102 0 196 -42q92 -42 176 -126t126 -184t42 -218q0 -86 -22 -162 q-20 -76 -60 -140q40 -64 60 -140q22 -74 22 -158q0 -118 -42 -218t-126 -186q-84 -84 -176 -126q-94 -40 -196 -40h-640zM0 302v68v172v60v154v60v28h640q40 0 80 -20t80 -60t60 -88q18 -48 18 -104t-18 -102q-20 -48 -60 -88t-80 -60q-38 -20 -78 -20h-2h-640zM0 902v58 v184v60v146v58v36h640q40 0 80 -20q40 -22 80 -62t60 -88q18 -46 18 -102t-18 -104q-20 -48 -60 -88q-40 -38 -80 -58t-80 -20h-640zM190 542h390q28 0 44 8q14 6 14 20v2q0 14 -14 22q-16 8 -46 8h-388v-60zM190 1142h390q28 0 44 8q14 8 14 22q0 16 -14 22q-16 8 -46 8 h-388v-60z" />
<glyph unicode="C" horiz-adv-x="1090" d="M0 542v362v298q0 272 134 406q136 134 408 134h414v-240h-414q-152 0 -226 -74q-76 -76 -76 -226v-660q0 -150 76 -226q74 -74 226 -74h414v-240h-414q-272 0 -408 136q-134 136 -134 404zM300 542v248v412q0 120 60 180t182 60h414v-236h-358q-30 0 -44 -16 q-16 -16 -16 -46v-540q0 -30 16 -46q14 -16 44 -16h358v-240h-414q-122 0 -182 60t-60 180z" />
<glyph unicode="D" d="M0 2v172v68h240h710q28 0 48 18q22 20 22 50v1122q0 28 -20 48q-20 22 -50 22h-950v240h722h4h6h10h12h230q114 0 196 -82q80 -82 80 -198v-136v-2v-2v-4v-76v-20v-22v-658v-20v-22v-72v-2v-2v-2v-2v-138q0 -76 -22 -126q-20 -50 -52 -82q-56 -58 -120 -66q-52 -8 -60 -8 q-2 0 -2 2h-282h-718h-4zM0 302v516v202v122v62v2v238h954q6 0 8 -4q4 -4 4 -8v-1122q0 -6 -4 -8q-4 -4 -8 -4h-520h-132v840h240v-596h180v662h-482v-62v-122v-718h-240zM636 1666h2v-2v2h-2z" />
<glyph unicode="E" d="M0 540v280v380q0 540 540 540h720v-240h-720q-300 0 -300 -300v-660q0 -300 300 -300h720v-240h-720t-540 540zM300 540v300h780v-240h-540q0 -60 60 -60h660v-240h-720q-240 0 -240 240zM300 900v56v244q0 240 240 240h720v-240h-660q-60 0 -60 -60h540v-240h-780z" />
<glyph unicode="F" horiz-adv-x="1168" d="M-2 2v778v328v94v114v4v2v2v140q0 112 82 194t198 82h226h6h4h12h10h492v-238h-726q-26 0 -46 -18q-18 -18 -18 -46v-1436h-240zM296 900v184v186v108q0 26 18 44q18 16 42 16h104h560v-240h-258h-168h-54q-12 0 -20 -8t-8 -20t6 -20q8 -8 18 -10h226v-240h-466zM300 -2 v840h462v-240h-226v-600h-236z" />
<glyph unicode="G" d="M0 276v140v2v2v2v2v114v94v340v134v94v114v4v2v2v140q0 114 82 196q84 82 200 82h226h6h6h10h12h724v-242h-906q-48 0 -84 -34q-34 -36 -34 -84v-1026q0 -48 34 -84q36 -34 84 -34h664v408q0 50 -34 86q-36 36 -88 36h-306v242h28h98h118h4h2h2h140q118 0 200 -82 q82 -84 82 -200v-184v-42v-34v-284v-184h-726h-10h-10h-6h-6h-230q-116 0 -200 80q-82 80 -82 198zM304 354v384v642q0 24 16 40q16 18 40 18h906v-238h-724v-664h58v180h306q24 0 42 -18q20 -20 20 -44v-118v-56v-186h-604q-26 0 -44 18q-16 18 -16 42z" />
<glyph unicode="H" horiz-adv-x="1464" d="M0 -2v1250v494h250v-658q0 -44 36 -66q36 -24 80 -24h274v-14v-232v-2h-274q-44 0 -80 -30q-36 -32 -36 -74v-644h-12h-238zM292 2v228v376q0 32 20 54q22 22 50 22h630q30 0 50 -22q22 -20 22 -50v-604h-238v436h-296v-440h-238zM292 1116q0 206 4 622h238 q-2 -152 -4 -456h296q0 152 2 456h240q-2 -208 -4 -622q0 -30 -22 -50q-20 -22 -50 -22h-630q-28 0 -50 22q-20 20 -20 50zM712 746v230v18h284q40 0 74 16q32 18 32 52v680h250v-370v-94v-112v-8v-138v-320v-140v-6v-114v-94v-348h-228h-22v662q0 34 -32 60q-34 26 -74 26 h-284z" />
<glyph unicode="I" horiz-adv-x="660" d="M0 0v1218v522h240v-1740h-240zM300 0v652v1088h240v-1740h-240z" />
<glyph unicode="J" horiz-adv-x="1270" d="M0 278v76v64v2v4v116v174v-2h240v-316q0 -66 46 -110q44 -44 108 -44h356q64 0 110 44q44 44 44 110v1346h244v-1110v-92v-116v-2v-2v-2v-140q0 -114 -82 -196t-198 -82h-230h-4h-6h-10h-12h-64h-10h-12h-6h-4h-230q-116 0 -198 82q-82 80 -82 196zM302 400v314h236v-172 h64v1200h242v-1342q0 -42 -30 -70q-28 -28 -68 -28h-352q-40 0 -66 28t-26 70z" />
<glyph unicode="K" horiz-adv-x="1386" d="M0 0v1248v492h240v-1740h-240zM302 0v840h358q118 0 180 -76q60 -74 60 -226v-538h-240v546q0 24 -44 50q-25 14 -46 14q-18 0 -32 -10v-600h-236zM302 902v210v628h236v-416q60 138 180 416h236q-120 -280 -358 -838h-122h-172zM668 902q88 208 358 838h236 q-90 -210 -358 -838h-236zM842 840h270q42 -48 64 -124q22 -74 22 -178v-538h-240v538q0 104 -28 178q-28 76 -88 124z" />
<glyph unicode="L" horiz-adv-x="978" d="M-2 278v140v2v2v4v114v98v778v330h240v-1382q0 -50 36 -86q34 -36 86 -38h494v-240h-316h-10h-10h-6h-6h-228q-116 0 -198 82t-82 196zM298 364v692v690h240v-1202h320v-240h-498q-24 0 -42 18q-20 18 -20 42z" />
<glyph unicode="M" horiz-adv-x="1680" d="M0 0v1218v522h360q200 0 300 -180l120 -240l120 240q100 180 300 180h360v-1740h-240v1500h-60q-120 0 -180 -120l-300 -660q-74 164 -300 660q-60 120 -180 120h-60v-1500h-240zM300 0v390v1050q60 0 80 -40q134 -286 400 -860q100 216 400 860q20 40 80 40v-1440h-240 v540q-60 -134 -240 -540q-60 136 -240 540v-540h-240z" />
<glyph unicode="N" horiz-adv-x="1680" d="M0 0v498v942q0 300 300 300q180 0 240 -72q146 -180 440 -540q18 -21 28 -21q12 0 12 33v600h240v-1268q2 -20 2 -36q0 -60 -16 -60q-10 0 -26 24q-286 346 -856 1040q-48 60 -90 60q-35 0 -35 -85q0 -16 1 -35v-1380h-240zM298 1304q0 60 16 60q10 0 26 -24 q286 -346 856 -1040q48 -60 90 -60q35 0 35 85q0 16 -1 35v1380h240v-1440q0 -300 -300 -300q-180 0 -240 72q-146 180 -440 540q-18 21 -28 21q-12 0 -12 -33v-600h-240v1268q-2 20 -2 36z" />
<glyph unicode="O" horiz-adv-x="1440" d="M0 540v280v380q0 540 540 540h240q540 0 540 -540v-660q0 -540 -540 -540h-240q-540 0 -540 540zM240 540q0 -300 300 -300h240q300 0 300 300v660q0 300 -300 300h-240q-300 0 -300 -300v-660zM300 540v166v494q0 240 240 240h240q240 0 240 -240v-660q0 -240 -240 -240 h-240q-240 0 -240 240zM540 600q0 -60 60 -60h120q60 0 60 60v540q0 60 -60 60h-120q-60 0 -60 -60v-540z" />
<glyph unicode="P" horiz-adv-x="1500" d="M0 0v798v342h780q60 0 60 30t-60 30h-780v240h840q82 0 160 -80q80 -80 80 -190q0 -112 -80 -192q-78 -78 -160 -78h-600v-900h-240zM0 1500v168v72h840q206 0 372 -168q168 -168 168 -402q0 -236 -168 -402q-166 -168 -372 -168h-300v-600h-240v840h540q106 0 202 96 q98 98 98 234q0 134 -98 232q-96 98 -202 98h-840z" />
<glyph unicode="Q" horiz-adv-x="1456" d="M2 266v142v2v2v2v116v396v178v94v116v4v2v2v142q0 116 88 198q86 80 202 80h230h10h12h4h6h242h6h6h10h12h232q114 0 198 -80q84 -82 84 -198v-138v-2v-2v-4v-214v-486h-254v722q0 68 -42 108t-110 40h-522q-68 0 -114 -40t-46 -108v-948q0 -68 46 -120q46 -54 114 -54 h348h218q24 0 38 -12q12 -14 12 -38v-166h-232h-566q-94 0 -164 82q-68 82 -68 182zM328 392v344v568q0 40 22 76t66 36h504q44 0 80 -36t36 -76v-686h-236v554q0 12 -8 18q-10 8 -20 8h-190q-10 0 -22 -8q-14 -6 -14 -18v-554v-58v-14h12h144h98h116h4h2h2h142 q116 0 198 -92q80 -90 80 -206v-228v-4v-4v-8v-2h-254v166q0 48 -28 86t-80 38h-544h-22q-44 0 -66 30t-22 70z" />
<glyph unicode="R" horiz-adv-x="1500" d="M0 0v798v342h780q60 0 60 30t-60 30h-780v240h840q82 0 160 -80q80 -80 80 -190q0 -112 -80 -192q-78 -78 -160 -78h-600v-900h-240zM0 1500v168v72h840q206 0 372 -168q168 -168 168 -402q0 -236 -122 -358q-120 -120 -204 -162q108 -216 326 -650h-240 q-106 210 -420 840h120q106 0 202 96q98 98 98 234q0 134 -98 232q-96 98 -202 98h-840zM300 0v210v630h360q104 -210 420 -840h-240q-74 150 -300 600v-600h-240z" />
<glyph unicode="S" horiz-adv-x="1440" d="M0 0v168v72h720q166 0 264 98q96 98 96 232q0 136 -96 232q-98 98 -264 98h-120q-142 0 -220 78q-80 80 -80 192q0 110 80 190q78 80 220 80h720v-240h-720q-60 0 -60 -30t60 -30h180q206 0 372 -168q168 -166 168 -402q0 -234 -168 -402q-166 -168 -372 -168h-780z M0 300v168v72h720q60 0 60 30t-60 30h-180q-206 0 -372 168q-168 166 -168 402q0 234 168 402q166 168 372 168h780v-240h-720q-166 0 -264 -98q-96 -98 -96 -232q0 -136 96 -234q98 -96 264 -96h120q142 0 222 -80q78 -78 78 -190q0 -110 -78 -190q-80 -80 -222 -80h-720z " />
<glyph unicode="T" horiz-adv-x="1500" d="M0 1200h420v-1200h240v1440h-660v-72v-168zM0 1500h1380v240h-1380v-72v-168zM720 0h240v1200h420v240h-660v-1440z" />
<glyph unicode="U" d="M0 540v868v332h240v-1200q0 -300 300 -300h180q300 0 300 300v1200h240v-1200q0 -540 -540 -540h-180q-540 0 -540 540zM300 540v516v684h240v-1140q0 -60 60 -60h60q60 0 60 60v1140h240v-1200q0 -240 -240 -240h-180q-240 0 -240 240z" />
<glyph unicode="V" horiz-adv-x="1842" d="M0 1742h240q180 -488 542 -1462q16 -22 38 -32q20 -10 44 -10q32 0 50 8q20 10 30 30q160 406 480 1220h-532v246h852q-194 -514 -584 -1544q-34 -100 -110 -150q-74 -50 -190 -50q-100 0 -174 50q-76 50 -126 150q-186 516 -560 1544zM300 1742h242q2 0 4 -4 q70 -174 208 -524q36 -94 110 -282l108 282h-80v212h434q-142 -366 -428 -1096q-4 -20 -14 -26q-8 -6 -24 -6q-14 0 -24 8q-10 10 -14 30q-174 468 -522 1406z" />
<glyph unicode="W" horiz-adv-x="1618" d="M0 278v140v2v2v4v114v864v340h242v-1366q0 -56 40 -96t96 -40h754q56 0 96 40t40 96v1366h242v-1110v-94v-114v-4v-2v-2v-140q0 -114 -82 -196q-84 -82 -200 -82h4h-6h-4h-12h-10h-660h-10h-12h-4h-6h-226q-118 0 -200 80q-82 82 -82 198zM300 378v684v682h244v-554v-584 v-66q0 -10 8 -20q8 -8 20 -8t20 8q10 8 10 20v4v646v78h122v-964h-346q-32 0 -56 20q-22 22 -22 54zM786 304v964h122v-78v-650v-2q0 -12 8 -20q8 -10 20 -10t20 8q10 8 10 22v64v588v554h240v-1366q0 -32 -20 -54q-22 -20 -54 -20h-346z" />
<glyph unicode="X" horiz-adv-x="1524" d="M4 2h46h88h68h188h74q78 124 234 376q76 -126 230 -376h88h178h68h88h68v212h-22h-266h-68q-122 198 -364 596q-44 -72 -132 -212v-4q-78 -126 -234 -380h-14h-52h-266v-50v-162zM4 286h38h270q90 144 358 576q-74 122 -224 366q-4 4 -10 14h4q-44 72 -128 212h-8h-262 h-38v-48v-164h170q76 -124 230 -372q-76 -124 -230 -372h-170v-212zM4 1526h266h52h14q2 -2 4 -8q54 -92 164 -276q62 -106 190 -318q42 70 124 212q20 28 58 82q60 102 180 308h10h58h10h266h22v212h-68h-88h-68h-156h-110q-76 -124 -230 -376q-78 126 -234 376h-4h-258 h-68h-88h-46v-50v-162zM734 870q118 -194 358 -584h268h62v212h-192q-78 126 -230 376q74 122 222 368h200v212h-68h-262h-8q-42 -70 -128 -212h4q-76 -124 -226 -372z" />
<glyph unicode="Y" horiz-adv-x="1488" d="M0 894v140v2v2v2v2v114v94v352v140h240v-754q0 -58 38 -96t92 -38h288v-240v-612h-238v614h-140q-116 0 -198 82q-82 80 -82 196zM290 1096h20h-6h-8h-2h-4zM302 988v376v378h238v-590h298v590h240v-754q0 -30 -20 -52q-22 -20 -52 -20h-636q-30 0 -48 20q-20 22 -20 52z M478 1096h18h-4h-2h-6h-6zM720 -2v616v240h286q58 0 96 40t38 94v754h238v-496v-94v-114v-4v-2v-2v-140q0 -114 -84 -196q-82 -80 -198 -80h-140v-616h-236z" />
<glyph unicode="Z" horiz-adv-x="1470" d="M0 0v204v168q0 96 30 170t92 128q258 178 774 532h-896v246h1098v-252v-20l-4 -16q-2 -22 -14 -58t-54 -68l-444 -318q-100 -74 -302 -222q-46 -30 -70 -76q-22 -46 -22 -108v-76h1162v-234h-1350zM0 1522v160v64h1350v-648q0 -102 -36 -180q-34 -78 -104 -130 q-94 -76 -278 -230h420v-248h-1078q2 22 6 58t48 68q140 102 424 306q106 78 320 234q46 30 70 76t24 108v362h-1166z" />
<glyph unicode="[" horiz-adv-x="720" d="M0 0v1218v522h600v-180h-420v-1380h420v-180h-600zM240 240v788v472h360v-180h-180v-900h180v-180h-360z" />
<glyph unicode="\" horiz-adv-x="900" d="M0 1740h180q90 -434 360 -1740h-180q-90 436 -360 1740zM240 1740h180q90 -434 360 -1740h-180q-90 436 -360 1740z" />
<glyph unicode="]" horiz-adv-x="720" d="M0 0v180h420v1380h-420v126v54h600v-1740h-600zM0 240v180h180v900h-180v126v54h360v-1260h-360z" />
<glyph unicode="^" horiz-adv-x="1080" d="M0 1080v126v54l480 240l480 -240v-180l-480 240zM0 1320v126v54l480 240l480 -240v-180l-480 240z" />
<glyph unicode="_" horiz-adv-x="1020" d="M0 0h680h340v-240h-1020v168v72z" />
<glyph unicode="a" horiz-adv-x="1740" d="M4 2q180 508 544 1524q48 98 122 152q72 54 168 54q106 0 178 -54t120 -152l552 -1524h-234q-178 484 -534 1450q-14 18 -34 30q-22 12 -48 12q-24 0 -42 -12t-32 -30q-176 -484 -528 -1450h-232zM296 -2q170 464 510 1390l4 12q0 4 4 10q4 12 12 22t20 10q8 0 14 -6 q8 -6 14 -16v-4v-2t4 -4v2v2q28 -82 88 -244q66 -184 202 -552q76 -206 230 -620h-202h-36q-36 96 -106 286q-4 14 -14 40q-28 70 -86 212q-10 30 -34 92q-26 64 -78 194q-2 -4 -4 -10q-30 -80 -92 -240q-4 -10 -10 -28q-28 -76 -86 -224q-40 -108 -120 -322h-234z" />
<glyph unicode="b" horiz-adv-x="1304" d="M0 2v172v66h640q52 0 102 26q52 24 100 72q48 50 72 108t24 126q0 92 -42 166q-44 74 -130 132q90 58 132 134q40 68 40 152v16q0 68 -24 126t-72 108q-48 48 -100 72q-50 24 -102 24h-640v240h640q102 0 196 -42q92 -42 176 -126t126 -184t42 -218q0 -86 -22 -162 q-20 -76 -60 -140q40 -64 60 -140q22 -74 22 -158q0 -118 -42 -218t-126 -186q-84 -84 -176 -126q-94 -40 -196 -40h-640zM0 302v68v172v60v154v60v28h640q40 0 80 -20t80 -60t60 -88q18 -48 18 -104t-18 -102q-20 -48 -60 -88t-80 -60q-38 -20 -78 -20h-2h-640zM0 902v58 v184v60v146v58v36h640q40 0 80 -20q40 -22 80 -62t60 -88q18 -46 18 -102t-18 -104q-20 -48 -60 -88q-40 -38 -80 -58t-80 -20h-640zM190 542h390q28 0 44 8q14 6 14 20v2q0 14 -14 22q-16 8 -46 8h-388v-60zM190 1142h390q28 0 44 8q14 8 14 22q0 16 -14 22q-16 8 -46 8 h-388v-60z" />
<glyph unicode="c" horiz-adv-x="1090" d="M0 542v362v298q0 272 134 406q136 134 408 134h414v-240h-414q-152 0 -226 -74q-76 -76 -76 -226v-660q0 -150 76 -226q74 -74 226 -74h414v-240h-414q-272 0 -408 136q-134 136 -134 404zM300 542v248v412q0 120 60 180t182 60h414v-236h-358q-30 0 -44 -16 q-16 -16 -16 -46v-540q0 -30 16 -46q14 -16 44 -16h358v-240h-414q-122 0 -182 60t-60 180z" />
<glyph unicode="d" d="M0 2v172v68h240h710q28 0 48 18q22 20 22 50v1122q0 28 -20 48q-20 22 -50 22h-950v240h722h4h6h10h12h230q114 0 196 -82q80 -82 80 -198v-136v-2v-2v-4v-76v-20v-22v-658v-20v-22v-72v-2v-2v-2v-2v-138q0 -76 -22 -126q-20 -50 -52 -82q-56 -58 -120 -66q-52 -8 -60 -8 q-2 0 -2 2h-282h-718h-4zM0 302v516v202v122v62v2v238h954q6 0 8 -4q4 -4 4 -8v-1122q0 -6 -4 -8q-4 -4 -8 -4h-520h-132v840h240v-596h180v662h-482v-62v-122v-718h-240zM636 1666h2v-2v2h-2z" />
<glyph unicode="e" d="M0 540v280v380q0 540 540 540h720v-240h-720q-300 0 -300 -300v-660q0 -300 300 -300h720v-240h-720t-540 540zM300 540v300h780v-240h-540q0 -60 60 -60h660v-240h-720q-240 0 -240 240zM300 900v56v244q0 240 240 240h720v-240h-660q-60 0 -60 -60h540v-240h-780z" />
<glyph unicode="f" horiz-adv-x="1168" d="M-2 2v778v328v94v114v4v2v2v140q0 112 82 194t198 82h226h6h4h12h10h492v-238h-726q-26 0 -46 -18q-18 -18 -18 -46v-1436h-240zM296 900v184v186v108q0 26 18 44q18 16 42 16h104h560v-240h-258h-168h-54q-12 0 -20 -8t-8 -20t6 -20q8 -8 18 -10h226v-240h-466zM300 -2 v840h462v-240h-226v-600h-236z" />
<glyph unicode="g" d="M0 276v140v2v2v2v2v114v94v340v134v94v114v4v2v2v140q0 114 82 196q84 82 200 82h226h6h6h10h12h724v-242h-906q-48 0 -84 -34q-34 -36 -34 -84v-1026q0 -48 34 -84q36 -34 84 -34h664v408q0 50 -34 86q-36 36 -88 36h-306v242h28h98h118h4h2h2h140q118 0 200 -82 q82 -84 82 -200v-184v-42v-34v-284v-184h-726h-10h-10h-6h-6h-230q-116 0 -200 80q-82 80 -82 198zM304 354v384v642q0 24 16 40q16 18 40 18h906v-238h-724v-664h58v180h306q24 0 42 -18q20 -20 20 -44v-118v-56v-186h-604q-26 0 -44 18q-16 18 -16 42z" />
<glyph unicode="h" horiz-adv-x="1464" d="M0 -2v1250v494h250v-658q0 -44 36 -66q36 -24 80 -24h274v-14v-232v-2h-274q-44 0 -80 -30q-36 -32 -36 -74v-644h-12h-238zM292 2v228v376q0 32 20 54q22 22 50 22h630q30 0 50 -22q22 -20 22 -50v-604h-238v438h-296v-442h-238zM292 1116q0 206 4 622h238 q-2 -152 -4 -456h296q0 152 2 456h240q-2 -208 -4 -622q0 -30 -22 -50q-20 -22 -50 -22h-630q-28 0 -50 22q-20 20 -20 50zM712 746v230v18h284q40 0 74 16q32 18 32 52v680h250v-370v-92v-114v-8v-138v-320v-140v-6v-114v-94v-348h-228h-22v662q0 34 -32 60q-34 26 -74 26 h-284z" />
<glyph unicode="i" horiz-adv-x="660" d="M0 0v1218v522h240v-1740h-240zM300 0v652v1088h240v-1740h-240z" />
<glyph unicode="j" horiz-adv-x="1270" d="M0 278v76v64v2v4v116v174v-2h240v-316q0 -66 46 -110q44 -44 108 -44h356q64 0 110 44q44 44 44 110v1346h244v-1110v-92v-116v-2v-2v-2v-140q0 -114 -82 -196t-198 -82h-230h-4h-6h-10h-12h-64h-10h-12h-6h-4h-230q-116 0 -198 82q-82 80 -82 196zM302 400v314h236v-172 h64v1200h242v-1342q0 -42 -30 -70q-28 -28 -68 -28h-352q-40 0 -66 28t-26 70z" />
<glyph unicode="k" horiz-adv-x="1386" d="M0 0v1248v492h240v-1740h-240zM302 0v840h358q118 0 180 -76q60 -74 60 -226v-538h-240v546q0 24 -44 50q-25 14 -46 14q-18 0 -32 -10v-600h-236zM302 902v200v638h236v-416q60 138 180 416h236q-120 -280 -358 -838h-122h-172zM668 902q88 208 358 838h236 q-120 -280 -358 -838h-236zM842 840h270q42 -48 64 -124q22 -74 22 -178v-538h-240v538q0 104 -28 178q-28 76 -88 124z" />
<glyph unicode="l" horiz-adv-x="978" d="M-2 278v140v2v2v4v114v98v778v330h240v-1382q0 -50 36 -86q34 -36 86 -38h494v-240h-316h-10h-10h-6h-6h-228q-116 0 -198 82t-82 196zM298 364v692v690h240v-1202h320v-240h-498q-24 0 -42 18q-20 18 -20 42z" />
<glyph unicode="m" horiz-adv-x="1680" d="M0 0v1218v522h360q200 0 300 -180l120 -240l120 240q100 180 300 180h360v-1740h-240v1500h-60q-120 0 -180 -120l-300 -660q-74 164 -300 660q-60 120 -180 120h-60v-1500h-240zM300 0v390v1050q60 0 80 -40q134 -286 400 -860q100 216 400 860q20 40 80 40v-1440h-240 v540q-60 -134 -240 -540q-60 136 -240 540v-540h-240z" />
<glyph unicode="n" horiz-adv-x="1680" d="M0 0v498v942q0 300 300 300q180 0 240 -72q146 -180 440 -540q18 -21 28 -21q12 0 12 33v600h240v-1268q2 -20 2 -36q0 -60 -16 -60q-10 0 -26 24q-286 346 -856 1040q-48 60 -90 60q-35 0 -35 -85q0 -16 1 -35v-1380h-240zM298 1304q0 60 16 60q10 0 26 -24 q286 -346 856 -1040q48 -60 90 -60q35 0 35 85q0 16 -1 35v1380h240v-1440q0 -300 -300 -300q-180 0 -240 72q-146 180 -440 540q-18 21 -28 21q-12 0 -12 -33v-600h-240v1268q-2 20 -2 36z" />
<glyph unicode="o" horiz-adv-x="1440" d="M0 540v280v380q0 540 540 540h240q540 0 540 -540v-660q0 -540 -540 -540h-240q-540 0 -540 540zM240 540q0 -300 300 -300h240q300 0 300 300v660q0 300 -300 300h-240q-300 0 -300 -300v-660zM300 540v166v494q0 240 240 240h240q240 0 240 -240v-660q0 -240 -240 -240 h-240q-240 0 -240 240zM540 600q0 -60 60 -60h120q60 0 60 60v540q0 60 -60 60h-120q-60 0 -60 -60v-540z" />
<glyph unicode="p" horiz-adv-x="1500" d="M0 0v798v342h780q60 0 60 30t-60 30h-780v240h840q82 0 160 -80q80 -80 80 -190q0 -112 -80 -192q-78 -78 -160 -78h-600v-900h-240zM0 1500v168v72h840q206 0 372 -168q168 -168 168 -402q0 -236 -168 -402q-166 -168 -372 -168h-300v-600h-240v840h540q106 0 202 96 q98 98 98 234q0 134 -98 232q-96 98 -202 98h-840z" />
<glyph unicode="q" horiz-adv-x="1456" d="M2 266v142v2v2v2v116v396v178v94v116v4v2v2v142q0 116 88 198q86 80 202 80h230h10h12h4h6h242h6h6h10h12h232q114 0 198 -80q84 -82 84 -198v-138v-2v-2v-4v-214v-486h-254v722q0 68 -42 108t-110 40h-522q-68 0 -114 -40t-46 -108v-948q0 -68 46 -120q46 -54 114 -54 h348h218q24 0 38 -12q12 -14 12 -38v-166h-232h-566q-94 0 -164 82q-68 82 -68 182zM328 392v344v568q0 40 22 76t66 36h504q44 0 80 -36t36 -76v-686h-236v554q0 12 -8 18q-10 8 -20 8h-190q-10 0 -22 -8q-14 -6 -14 -18v-554v-58v-14h12h144h98h116h4h2h2h142 q116 0 198 -92q80 -90 80 -206v-228v-4v-4v-8v-2h-254v166q0 48 -28 86t-80 38h-544h-22q-44 0 -66 30t-22 70z" />
<glyph unicode="r" horiz-adv-x="1500" d="M0 2v816v324h780q30 0 46 8q14 8 14 22q0 16 -14 22q-16 8 -46 8h-780v240h840q42 0 82 -20t80 -60t58 -88q20 -46 20 -102t-20 -104q-20 -46 -58 -86q-40 -40 -80 -60t-82 -20h-600v-900h-240zM0 1502v174v66h840q104 0 198 -42q92 -40 176 -126q84 -84 126 -184 t42 -218t-30 -208q-32 -88 -92 -148t-112 -102q-52 -40 -92 -62q108 -216 326 -650h-240q-140 280 -422 840h120q54 0 104 24q52 24 100 72q48 50 72 108t24 126t-24 126t-72 108q-48 48 -100 72q-50 24 -104 24h-840zM300 2v840h360l420 -840h-240l-300 600v-600h-240z" />
<glyph unicode="s" horiz-adv-x="1440" d="M0 0v168v72h720q166 0 264 98q96 98 96 232q0 136 -96 232q-98 98 -264 98h-120q-142 0 -220 78q-80 80 -80 192q0 110 80 190q78 80 220 80h720v-240h-720q-60 0 -60 -30t60 -30h180q206 0 372 -168q168 -166 168 -402q0 -234 -168 -402q-166 -168 -372 -168h-780z M0 300v168v72h720q60 0 60 30t-60 30h-180q-206 0 -372 168q-168 166 -168 402q0 234 168 402q166 168 372 168h780v-240h-720q-166 0 -264 -98q-96 -98 -96 -232q0 -136 96 -234q98 -96 264 -96h120q142 0 222 -80q78 -78 78 -190q0 -110 -78 -190q-80 -80 -222 -80h-720z " />
<glyph unicode="t" horiz-adv-x="1500" d="M0 1200h420v-1200h240v1440h-660v-72v-168zM0 1500h1380v240h-1380v-72v-168zM720 0h240v1200h420v240h-660v-1440z" />
<glyph unicode="u" d="M0 540v868v332h240v-1200q0 -300 300 -300h180q300 0 300 300v1200h240v-1200q0 -540 -540 -540h-180q-540 0 -540 540zM300 540v516v684h240v-1140q0 -60 60 -60h60q60 0 60 60v1140h240v-1200q0 -240 -240 -240h-180q-240 0 -240 240z" />
<glyph unicode="v" horiz-adv-x="1842" d="M0 1742h240q180 -488 542 -1462q16 -22 38 -32q20 -10 44 -10q32 0 50 8q20 10 30 30q160 406 480 1220h-532v246h852q-194 -514 -584 -1544q-34 -100 -110 -150q-74 -50 -190 -50q-100 0 -174 50q-76 50 -126 150q-186 516 -560 1544zM300 1742h242q2 0 4 -4 q70 -174 208 -524q36 -94 110 -282l108 282h-80v212h434q-142 -366 -428 -1096q-4 -20 -14 -26q-8 -6 -24 -6q-14 0 -24 8q-10 10 -14 30q-174 468 -522 1406z" />
<glyph unicode="w" horiz-adv-x="1618" d="M0 278v140v2v2v4v114v864v340h242v-1366q0 -56 40 -96t96 -40h754q56 0 96 40t40 96v1366h242v-1110v-94v-114v-4v-2v-2v-140q0 -114 -82 -196q-84 -82 -200 -82h4h-6h-4h-12h-10h-660h-10h-12h-4h-6h-226q-118 0 -200 80q-82 82 -82 198zM300 378v684v682h244v-554v-584 v-66q0 -10 8 -20q8 -8 20 -8t20 8q10 8 10 20v4v646v78h122v-964h-346q-32 0 -56 20q-22 22 -22 54zM786 304v964h122v-78v-650v-2q0 -12 8 -20q8 -10 20 -10t20 8q10 8 10 22v64v588v554h240v-1366q0 -32 -20 -54q-22 -20 -54 -20h-346z" />
<glyph unicode="x" horiz-adv-x="1522" d="M0 -2h46h88h68h188h74q78 126 236 376q76 -124 230 -376h88h178h68h88h68v214h-22h-266h-68q-122 198 -364 596q-44 -72 -132 -214v-2q-78 -128 -234 -380h-14h-54h-266v-60v-154zM0 282h40h268q90 144 360 578q-76 122 -224 366q-4 4 -12 14h4q-42 72 -128 214h-6h-262 h-40v-60v-154h170q78 -124 232 -372q-78 -124 -232 -372h-170v-214zM0 1524h266h54h14q0 -2 4 -6q54 -94 162 -278l192 -318q42 70 124 212q20 28 58 82q60 102 180 308h10h58h10h266h22v214h-68h-88h-68h-156h-110q-78 -126 -230 -376q-78 124 -236 376h-2h-260h-68h-88 h-46v-60v-154zM732 868q118 -196 358 -586h270h60v214h-192q-76 124 -230 376q74 122 222 368h200v214h-68h-262h-8q-42 -72 -128 -214h4q-76 -124 -226 -372z" />
<glyph unicode="y" horiz-adv-x="1488" d="M0 894v140v2v2v2v2v114v94v352v140h240v-754q0 -58 38 -96t92 -38h288v-240v-612h-238v614h-140q-116 0 -198 82q-82 80 -82 196zM290 1096h20h-6h-8h-2h-4zM302 988v376v378h238v-590h298v590h240v-754q0 -30 -20 -52q-22 -20 -52 -20h-636q-30 0 -48 20q-20 22 -20 52z M478 1096h18h-4h-2h-6h-6zM720 -2v616v240h286q58 0 96 40t38 94v754h238v-496v-94v-114v-4v-2v-2v-140q0 -114 -84 -196q-82 -80 -198 -80h-140v-616h-236z" />
<glyph unicode="z" horiz-adv-x="1470" d="M0 0v204v168q0 96 30 170t92 128q258 178 774 532h-896v246h1098v-252v-20l-4 -16q-2 -22 -14 -58t-54 -68l-444 -318q-100 -74 -302 -222q-46 -30 -70 -76q-22 -46 -22 -108v-76h1162v-234h-1350zM0 1522v160v64h1350v-648q0 -102 -36 -180q-34 -78 -104 -130 q-94 -76 -278 -230h420v-248h-1078q2 22 6 58t48 68q140 102 424 306q106 78 320 234q46 30 70 76t24 108v362h-1166z" />
<glyph unicode="{" horiz-adv-x="840" d="M0 780v76v104q120 -8 120 360q0 420 420 420h180v-180h-180q-240 0 -240 -240q0 -420 -120 -450q120 -90 120 -450q0 -240 240 -240h180v-180h-180q-420 0 -420 420q0 360 -120 360zM240 870q120 30 120 450q0 180 180 180h180v-180h-120q-60 0 -60 -60q0 -360 -120 -390 q120 -90 120 -390q0 -60 60 -60h120v-180h-180q-180 0 -180 180q0 360 -120 450z" />
<glyph unicode="|" horiz-adv-x="540" d="M0 0v1218v522h180v-1740h-180zM240 0v1088v652h180v-1740h-180z" />
<glyph unicode="}" horiz-adv-x="840" d="M0 0v180h180q240 0 240 240q0 360 120 450q-120 30 -120 450q0 240 -240 240h-180v126v54h180q420 0 420 -420q0 -368 120 -360v-180q-120 0 -120 -360q0 -420 -420 -420h-180zM0 240v180h120q60 0 60 60q0 300 120 390q-120 30 -120 390q0 60 -60 60h-120v126v54h180 q180 0 180 -180q0 -420 120 -450q-120 -90 -120 -450q0 -180 -180 -180h-180z" />
<glyph unicode="~" horiz-adv-x="1140" d="M0 1200v62v118q120 120 180 120t330 -120t330 -120t180 120v-180q-120 -120 -180 -120t-330 120t-330 120t-180 -120zM0 1440v62v118q120 120 180 120t330 -120t330 -120t180 120v-180q-120 -120 -180 -120t-330 120t-330 120t-180 -120z" />
<glyph unicode="&#xa6;" horiz-adv-x="660" d="M0 0v588v252h240v-840h-240zM0 900v588v252h240v-840h-240zM300 0v210v630h240v-840h-240zM300 900v210v630h240v-840h-240z" />
<glyph unicode="&#xad;" horiz-adv-x="1140" d="M0 698v244v110h1022v-354h-1022z" />
<glyph unicode="&#x2000;" horiz-adv-x="876" />
<glyph unicode="&#x2001;" horiz-adv-x="1752" />
<glyph unicode="&#x2002;" horiz-adv-x="876" />
<glyph unicode="&#x2003;" horiz-adv-x="1752" />
<glyph unicode="&#x2004;" horiz-adv-x="584" />
<glyph unicode="&#x2005;" horiz-adv-x="438" />
<glyph unicode="&#x2006;" horiz-adv-x="292" />
<glyph unicode="&#x2007;" horiz-adv-x="292" />
<glyph unicode="&#x2008;" horiz-adv-x="219" />
<glyph unicode="&#x2009;" horiz-adv-x="350" />
<glyph unicode="&#x200a;" horiz-adv-x="97" />
<glyph unicode="&#x2010;" horiz-adv-x="1140" d="M0 698v244v110h1022v-354h-1022z" />
<glyph unicode="&#x2011;" horiz-adv-x="1140" d="M0 698v244v110h1022v-354h-1022z" />
<glyph unicode="&#x2012;" horiz-adv-x="1140" d="M0 698v244v110h1022v-354h-1022z" />
<glyph unicode="&#x2013;" horiz-adv-x="1142" d="M0 698v244v110h1024v-354h-1024z" />
<glyph unicode="&#x2014;" horiz-adv-x="2166" d="M0 698v244v110h2048v-354h-2048z" />
<glyph unicode="&#x2026;" horiz-adv-x="1620" d="M0 0v126v54h420v-180h-420zM0 240v126v54h420v-180h-420zM540 0v180h420v-180h-420zM540 240v180h420v-180h-420zM1080 0v180h420v-180h-420zM1080 240v180h420v-180h-420z" />
<glyph unicode="&#x202f;" horiz-adv-x="350" />
<glyph unicode="&#x205f;" horiz-adv-x="438" />
<glyph unicode="&#x25fc;" horiz-adv-x="1740" d="M0 0v1740h1740v-1740h-1740z" />
</font>
</defs>
</svg>
